<?xml version="1.0" encoding="UTF-8"?>
<svg width="24px" height="24px" viewBox="0 0 24 24" stroke-width="1.5" fill="none" xmlns="http://www.w3.org/2000/svg" color="#000000">
  <path d="M12 8.5V7.5" stroke="#000000" stroke-width="1.5" stroke-linecap="round" stroke-linejoin="round"></path>
  <path d="M12 16.5V15.5" stroke="#000000" stroke-width="1.5" stroke-linecap="round" stroke-linejoin="round"></path>
  <path d="M10 12.4V11.6C10 11.2686 10.2686 11 10.6 11H13.4C13.7314 11 14 11.2686 14 11.6V12.4C14 12.7314 13.7314 13 13.4 13H10.6C10.2686 13 10 12.7314 10 12.4Z" stroke="#000000" stroke-width="1.5" stroke-linecap="round" stroke-linejoin="round"></path>
  <path d="M17.5 15.5V8.5C17.5 7.39543 16.6046 6.5 15.5 6.5H8.5C7.39543 6.5 6.5 7.39543 6.5 8.5V15.5C6.5 16.6046 7.39543 17.5 8.5 17.5H15.5C16.6046 17.5 17.5 16.6046 17.5 15.5Z" stroke="#000000" stroke-width="1.5"></path>
  <path d="M17.5 10.5H19.5C20.0523 10.5 20.5 10.9477 20.5 11.5V12.5C20.5 13.0523 20.0523 13.5 19.5 13.5H17.5" stroke="#000000" stroke-width="1.5"></path>
  <path d="M6.5 10.5H4.5C3.94772 10.5 3.5 10.9477 3.5 11.5V12.5C3.5 13.0523 3.94772 13.5 4.5 13.5H6.5" stroke="#000000" stroke-width="1.5"></path>
  <path d="M12 17.5V20.5M9.5 20.5H14.5" stroke="#000000" stroke-width="1.5" stroke-linecap="round" stroke-linejoin="round"></path>
  <path d="M12 6.5V3.5M9.5 3.5H14.5" stroke="#000000" stroke-width="1.5" stroke-linecap="round" stroke-linejoin="round"></path>
</svg> 